# xmcd
#
# Track frame offsets:
#  150
#  686
#  24370
#  39953
#  54853
#  73350
#  89746
#  99977
#  120744
#  153708
#  175661
#  208210
#  223998
#  248693
#  284717
#  308892
#
# Disc length: 4658 seconds
#
# Revision: 0
# Processed by: cddbd v1.5.1PL2 Copyright (c) Steve Scherf et al.
# Submitted via: Collectorz.com_Music_Collector 6.11
#
DISCID=e8123010
DTITLE=Lyle Lovett - Vienna - 29 July 2003 [CD1)
DYEAR=2003
DGENRE=Country
TTITLE0=Intro
TTITLE1=Moritat (Mack The Knife)
TTITLE2=Instrumental (Tickle Toes?)
TTITLE3=Blue Skies
TTITLE4=Cute As A Bug
TTITLE5=San Antonio Girl
TTITLE6=Penguins
TTITLE7=Big Dog
TTITLE8=I've Been To Memphis
TTITLE9=You're Not From Texas
TTITLE10=Summer Wind
TTITLE11=Straighten Up And Fly Right
TTITLE12=Gee Baby, Ain't I Good To You
TTITLE13=She's No Lady
TTITLE14=Bears
TTITLE15=Her First Mistake
EXTD=
EXTT0=
EXTT1=
EXTT2=
EXTT3=
EXTT4=
EXTT5=
EXTT6=
EXTT7=
EXTT8=
EXTT9=
EXTT10=
EXTT11=
EXTT12=
EXTT13=
EXTT14=
EXTT15=
PLAYORDER=
